<?xml version="1.0" encoding="UTF-8"?>
<!DOCTYPE svg PUBLIC "-//W3C//DTD SVG 1.1//EN" "http://www.w3.org/Graphics/SVG/1.1/DTD/svg11.dtd">
<svg xmlns="http://www.w3.org/2000/svg" version="1.1" width="836px" height="139px" style="shape-rendering:geometricPrecision; text-rendering:geometricPrecision; image-rendering:optimizeQuality; fill-rule:evenodd; clip-rule:evenodd" xmlns:xlink="http://www.w3.org/1999/xlink">
<g><path style="opacity:0.99" fill="#f2f2f4" d="M 86.5,33.5 C 92.1667,33.5 97.8333,33.5 103.5,33.5C 103.333,49.5035 103.5,65.5035 104,81.5C 105.742,89.1339 110.576,93.1339 118.5,93.5C 125.133,93.0322 129.633,89.6989 132,83.5C 132.333,67.1667 132.667,50.8333 133,34.5C 138.741,33.5251 144.575,33.1918 150.5,33.5C 150.667,47.8372 150.5,62.1705 150,76.5C 148.694,96.4723 138.028,107.139 118,108.5C 101.937,108.424 91.6037,100.758 87,85.5C 86.5001,68.1699 86.3334,50.8365 86.5,33.5 Z"/></g>
<g><path style="opacity:0.341" fill="#8e8c9e" d="M 241.5,34.5 C 259.326,33.5032 277.326,33.1699 295.5,33.5C 295.819,38.3633 295.486,43.03 294.5,47.5C 294.5,43.1667 294.5,38.8333 294.5,34.5C 276.833,34.5 259.167,34.5 241.5,34.5 Z"/></g>
<g><path style="opacity:0.247" fill="#7f7e92" d="M 308.5,33.5 C 308.5,57.8333 308.5,82.1667 308.5,106.5C 313.833,106.5 319.167,106.5 324.5,106.5C 319.025,107.489 313.358,107.822 307.5,107.5C 307.169,82.661 307.502,57.9944 308.5,33.5 Z"/></g>
<g><path style="opacity:0.989" fill="#f9f9fa" d="M 308.5,33.5 C 321.504,33.3334 334.504,33.5001 347.5,34C 359.874,36.8804 366.208,44.7138 366.5,57.5C 366.549,68.7502 361.549,76.7502 351.5,81.5C 356.695,89.227 361.361,97.227 365.5,105.5C 359.69,106.49 353.69,106.823 347.5,106.5C 343.512,99.1937 339.512,91.8604 335.5,84.5C 331.893,83.5108 328.226,83.1774 324.5,83.5C 324.5,91.1667 324.5,98.8333 324.5,106.5C 319.167,106.5 313.833,106.5 308.5,106.5C 308.5,82.1667 308.5,57.8333 308.5,33.5 Z M 324.5,47.5 C 330.842,47.3338 337.175,47.5005 343.5,48C 348.034,49.8572 350.034,53.1906 349.5,58C 350.204,62.592 348.537,65.9253 344.5,68C 337.908,69.3288 331.241,69.8288 324.5,69.5C 324.5,62.1667 324.5,54.8333 324.5,47.5 Z"/></g>
<g><path style="opacity:0.983" fill="#f1f1f3" d="M 446.5,81.5 C 445.833,81.8333 445.167,82.1667 444.5,82.5C 439.224,52.434 451.891,35.7673 482.5,32.5C 496.798,32.8144 508.132,38.6478 516.5,50C 511.41,52.6282 506.243,55.1282 501,57.5C 492.917,48.5551 483.084,46.0551 471.5,50C 457.331,55.8253 448.997,66.3253 446.5,81.5 Z"/></g>
<g><path style="opacity:0.985" fill="#f5f5f7" d="M 559.5,32.5 C 578.487,31.2361 592.32,38.9028 601,55.5C 608.209,77.8846 601.375,94.3846 580.5,105C 559.535,112.12 542.368,106.954 529,89.5C 518.743,66.3506 524.576,48.5172 546.5,36C 550.86,34.4171 555.194,33.2505 559.5,32.5 Z M 561.5,47.5 C 576.655,48.1547 585.321,55.988 587.5,71C 582.283,91.7756 569.95,97.7756 550.5,89C 540.351,79.3817 538.851,68.5484 546,56.5C 550.274,51.7854 555.441,48.7854 561.5,47.5 Z"/></g>
<g><path style="opacity:0.188" fill="#747288" d="M 615.5,33.5 C 615.5,57.8333 615.5,82.1667 615.5,106.5C 620.833,106.5 626.167,106.5 631.5,106.5C 626.025,107.489 620.358,107.822 614.5,107.5C 614.169,82.661 614.502,57.9944 615.5,33.5 Z"/></g>
<g><path style="opacity:0.986" fill="#fafafa" d="M 615.5,33.5 C 628.504,33.3334 641.504,33.5001 654.5,34C 666.863,36.8709 673.197,44.7042 673.5,57.5C 673.629,68.7695 668.629,76.6029 658.5,81C 663.57,88.9772 668.236,97.1439 672.5,105.5C 666.69,106.49 660.69,106.823 654.5,106.5C 650.512,99.1937 646.512,91.8604 642.5,84.5C 638.893,83.5108 635.226,83.1774 631.5,83.5C 631.5,91.1667 631.5,98.8333 631.5,106.5C 626.167,106.5 620.833,106.5 615.5,106.5C 615.5,82.1667 615.5,57.8333 615.5,33.5 Z M 631.5,47.5 C 637.842,47.3338 644.175,47.5005 650.5,48C 655.179,49.8396 657.512,53.3396 657.5,58.5C 657.125,62.7625 655.125,65.9292 651.5,68C 644.908,69.3288 638.241,69.8288 631.5,69.5C 631.5,62.1667 631.5,54.8333 631.5,47.5 Z"/></g>
<g><path style="opacity:0.987" fill="#f4f4f6" d="M 783.5,32.5 C 794.507,31.5346 804.84,33.7013 814.5,39C 815.357,39.6891 816.023,40.5224 816.5,41.5C 814.615,45.9999 812.448,50.3333 810,54.5C 801.268,48.2712 791.768,46.4379 781.5,49C 779.177,52.7514 779.844,56.0847 783.5,59C 791.566,61.8002 799.566,64.8002 807.5,68C 816.238,74.428 819.072,82.928 816,93.5C 810.255,104.102 801.255,109.102 789,108.5C 778.543,108.125 769.043,104.959 760.5,99C 759.196,98.196 758.529,97.0293 758.5,95.5C 759.97,91.2263 761.97,87.2263 764.5,83.5C 770.509,88.004 777.176,91.1707 784.5,93C 787.833,93.6667 791.167,93.6667 794.5,93C 800.113,90.0012 800.78,86.1679 796.5,81.5C 788.295,78.042 779.961,74.8753 771.5,72C 760.848,63.5356 759.014,53.3689 766,41.5C 771.029,36.7367 776.862,33.7367 783.5,32.5 Z"/></g>
<g><path style="opacity:0.992" fill="#fdfdfd" d="M 34.5,33.5 C 39.8333,33.5 45.1667,33.5 50.5,33.5C 50.5,53.1667 50.5,72.8333 50.5,92.5C 60.5,92.5 70.5,92.5 80.5,92.5C 80.5,97.1667 80.5,101.833 80.5,106.5C 65.1667,106.5 49.8333,106.5 34.5,106.5C 34.5,82.1667 34.5,57.8333 34.5,33.5 Z"/></g>
<g><path style="opacity:0.992" fill="#f9f9fa" d="M 163.5,33.5 C 168.544,33.1725 173.544,33.5059 178.5,34.5C 194.611,57.9308 210.278,81.5975 225.5,105.5C 220.36,106.488 215.026,106.821 209.5,106.5C 199.109,91.4037 188.942,76.0704 179,60.5C 178.5,75.8297 178.333,91.163 178.5,106.5C 173.5,106.5 168.5,106.5 163.5,106.5C 163.5,82.1667 163.5,57.8333 163.5,33.5 Z"/></g>
<g><path style="opacity:0.986" fill="#fbfbfb" d="M 226.5,33.5 C 226.83,52.3408 226.497,71.0075 225.5,89.5C 218.975,85.126 214.475,79.126 212,71.5C 211.5,58.8377 211.333,46.1711 211.5,33.5C 216.5,33.5 221.5,33.5 226.5,33.5 Z"/></g>
<g><path style="opacity:0.085" fill="#57556f" d="M 226.5,33.5 C 227.828,52.3375 227.828,71.3375 226.5,90.5C 225.893,90.3764 225.56,90.0431 225.5,89.5C 226.497,71.0075 226.83,52.3408 226.5,33.5 Z"/></g>
<g><path style="opacity:0.995" fill="#fefefe" d="M 241.5,34.5 C 259.167,34.5 276.833,34.5 294.5,34.5C 294.5,38.8333 294.5,43.1667 294.5,47.5C 282.167,47.5 269.833,47.5 257.5,47.5C 257.5,62.8333 257.5,78.1667 257.5,93.5C 269.989,94.4954 282.656,94.8287 295.5,94.5C 295.5,98.5 295.5,102.5 295.5,106.5C 277.5,106.5 259.5,106.5 241.5,106.5C 241.5,82.5 241.5,58.5 241.5,34.5 Z"/></g>
<g><path style="opacity:0.29" fill="#89889a" d="M 431.5,34.5 C 413.833,34.5 396.167,34.5 378.5,34.5C 378.5,58.5 378.5,82.5 378.5,106.5C 378.5,106.833 378.5,107.167 378.5,107.5C 377.502,83.0056 377.169,58.339 377.5,33.5C 395.674,33.1699 413.674,33.5032 431.5,34.5 Z"/></g>
<g><path style="opacity:1" fill="#fefefe" d="M 431.5,34.5 C 431.5,38.5 431.5,42.5 431.5,46.5C 418.989,46.1714 406.655,46.5048 394.5,47.5C 394.5,62.8333 394.5,78.1667 394.5,93.5C 406.989,94.4954 419.656,94.8287 432.5,94.5C 432.5,98.5 432.5,102.5 432.5,106.5C 414.5,106.5 396.5,106.5 378.5,106.5C 378.5,82.5 378.5,58.5 378.5,34.5C 396.167,34.5 413.833,34.5 431.5,34.5 Z"/></g>
<g><path style="opacity:0.989" fill="#f9f9f9" d="M 685.5,33.5 C 697.505,33.3335 709.505,33.5001 721.5,34C 744.399,39.9383 754.233,54.7717 751,78.5C 747.357,94.9771 737.191,104.31 720.5,106.5C 708.833,106.5 697.167,106.5 685.5,106.5C 685.5,82.1667 685.5,57.8333 685.5,33.5 Z M 701.5,47.5 C 726.084,44.5821 736.584,55.2488 733,79.5C 729.969,87.7 724.136,92.3667 715.5,93.5C 710.9,92.5565 706.233,92.2232 701.5,92.5C 701.5,77.5 701.5,62.5 701.5,47.5 Z"/></g>
<g><path style="opacity:0.573" fill="#b1afbc" d="M 431.5,34.5 C 432.485,38.6344 432.818,42.9677 432.5,47.5C 419.833,47.5 407.167,47.5 394.5,47.5C 406.655,46.5048 418.989,46.1714 431.5,46.5C 431.5,42.5 431.5,38.5 431.5,34.5 Z"/></g>
<g><path style="opacity:0.282" fill="#858496" d="M 163.5,33.5 C 163.5,57.8333 163.5,82.1667 163.5,106.5C 168.5,106.5 173.5,106.5 178.5,106.5C 173.36,107.488 168.026,107.821 162.5,107.5C 162.169,82.661 162.502,57.9944 163.5,33.5 Z"/></g>
<g><path style="opacity:0.997" fill="#f3f3f5" d="M 291.5,76.5 C 283.833,76.5 276.167,76.5 268.5,76.5C 268.5,75.5 268.5,74.5 268.5,73.5C 268.46,70.1194 268.793,66.7861 269.5,63.5C 276.833,63.5 284.167,63.5 291.5,63.5C 291.5,67.8333 291.5,72.1667 291.5,76.5 Z"/></g>
<g><path style="opacity:0.997" fill="#fdfdfd" d="M 406.5,64.5 C 413.5,64.5 420.5,64.5 427.5,64.5C 427.5,68.5 427.5,72.5 427.5,76.5C 420.167,76.5 412.833,76.5 405.5,76.5C 405.5,75.1667 405.5,73.8333 405.5,72.5C 405.279,69.7212 405.612,67.0545 406.5,64.5 Z"/></g>
<g><path style="opacity:0.98" fill="#f2f2f4" d="M 458.5,70.5 C 462.332,87.8308 472.998,94.9974 490.5,92C 494.513,89.9945 498.18,87.4945 501.5,84.5C 506.5,86.6667 511.5,88.8333 516.5,91C 505.023,105.96 490.023,111.294 471.5,107C 457.171,98.4911 452.838,86.3244 458.5,70.5 Z"/></g>
<g><path style="opacity:0.231" fill="#7d7c90" d="M 685.5,33.5 C 685.5,57.8333 685.5,82.1667 685.5,106.5C 697.167,106.5 708.833,106.5 720.5,106.5C 708.678,107.495 696.678,107.828 684.5,107.5C 684.169,82.661 684.502,57.9944 685.5,33.5 Z"/></g>
<g><path style="opacity:0.573" fill="#bdbcc7" d="M 268.5,73.5 C 268.5,74.5 268.5,75.5 268.5,76.5C 276.167,76.5 283.833,76.5 291.5,76.5C 283.684,77.4924 275.684,77.8257 267.5,77.5C 267.232,75.901 267.566,74.5676 268.5,73.5 Z"/></g>
<g><path style="opacity:0.573" fill="#b1b1bd" d="M 406.5,64.5 C 413.648,63.5084 420.981,63.175 428.5,63.5C 428.5,68.1667 428.5,72.8333 428.5,77.5C 420.5,77.5 412.5,77.5 404.5,77.5C 404.216,75.5853 404.549,73.9187 405.5,72.5C 405.5,73.8333 405.5,75.1667 405.5,76.5C 412.833,76.5 420.167,76.5 427.5,76.5C 427.5,72.5 427.5,68.5 427.5,64.5C 420.5,64.5 413.5,64.5 406.5,64.5 Z"/></g>
<g><path style="opacity:0.204" fill="#828194" d="M 446.5,81.5 C 446.719,82.675 446.386,83.675 445.5,84.5C 444.702,84.0431 444.369,83.3764 444.5,82.5C 445.167,82.1667 445.833,81.8333 446.5,81.5 Z"/></g>
<g><path style="opacity:0.369" fill="#a2a1b0" d="M 257.5,93.5 C 270.5,93.5 283.5,93.5 296.5,93.5C 296.819,98.3633 296.486,103.03 295.5,107.5C 295.5,107.167 295.5,106.833 295.5,106.5C 295.5,102.5 295.5,98.5 295.5,94.5C 282.656,94.8287 269.989,94.4954 257.5,93.5 Z"/></g>
<g><path style="opacity:0.395" fill="#abaab7" d="M 394.5,93.5 C 407.5,93.5 420.5,93.5 433.5,93.5C 433.5,98.1667 433.5,102.833 433.5,107.5C 415.167,107.5 396.833,107.5 378.5,107.5C 378.5,107.167 378.5,106.833 378.5,106.5C 396.5,106.5 414.5,106.5 432.5,106.5C 432.5,102.5 432.5,98.5 432.5,94.5C 419.656,94.8287 406.989,94.4954 394.5,93.5 Z"/></g>
<g><path style="opacity:0.573" fill="#b2b1bd" d="M 34.5,33.5 C 34.5,57.8333 34.5,82.1667 34.5,106.5C 49.8333,106.5 65.1667,106.5 80.5,106.5C 65.0089,107.496 49.3422,107.83 33.5,107.5C 33.169,82.661 33.5023,57.9944 34.5,33.5 Z"/></g>
<g><path style="opacity:0.341" fill="#9190a1" d="M 225.5,105.5 C 226.043,105.56 226.376,105.893 226.5,106.5C 220.68,107.816 215.013,107.816 209.5,106.5C 215.026,106.821 220.36,106.488 225.5,105.5 Z"/></g>
<g><path style="opacity:0.573" fill="#a2a1b0" d="M 241.5,34.5 C 241.5,58.5 241.5,82.5 241.5,106.5C 259.5,106.5 277.5,106.5 295.5,106.5C 295.5,106.833 295.5,107.167 295.5,107.5C 277.167,107.5 258.833,107.5 240.5,107.5C 240.169,82.9943 240.502,58.6609 241.5,34.5 Z"/></g>
<g><path style="opacity:0.341" fill="#908fa0" d="M 365.5,105.5 C 366.043,105.56 366.376,105.893 366.5,106.5C 360.012,107.817 353.678,107.817 347.5,106.5C 353.69,106.823 359.69,106.49 365.5,105.5 Z"/></g>
<g><path style="opacity:0.341" fill="#908fa0" d="M 672.5,105.5 C 673.043,105.56 673.376,105.893 673.5,106.5C 667.012,107.817 660.678,107.817 654.5,106.5C 660.69,106.823 666.69,106.49 672.5,105.5 Z"/></g>
</svg>
