<?xml version="1.0" encoding="UTF-8"?>
<svg version="1.1" xmlns="http://www.w3.org/2000/svg" width="636" height="164">
<path d="M0 0 C5.28 0 10.56 0 16 0 C16 19.8 16 39.6 16 60 C11.05 60 6.1 60 1 60 C0.67 59.34 0.34 58.68 0 58 C-1.6396875 58.7734375 -1.6396875 58.7734375 -3.3125 59.5625 C-9.34071059 61.79240445 -15.33865596 61.44592061 -21.3046875 59.08984375 C-27.41328335 55.68977625 -30.81735948 50.54792156 -33 44 C-33.64072207 36.32183881 -33.88975996 29.29502822 -29 23 C-23.94413618 17.52791494 -19.00075405 15.00107667 -11.5 14.6875 C-6.90131396 14.57919761 -5.68454072 15.65772964 -1 18 C-0.67 12.06 -0.34 6.12 0 0 Z M-15 30 C-17.31970989 33.01562286 -17.4272413 36.29036262 -17.30859375 40.03125 C-16.78904165 43.34586086 -15.52669389 44.86202825 -13 47 C-9.19639278 48.10650392 -6.9519953 48.31733177 -3.1875 47.0625 C-0.06373058 44.11723169 0.835971 41.26475412 1 37 C0.06979204 32.84237484 -1.39075902 30.40616065 -5 28 C-8.87720334 27.67002525 -11.7789089 27.69922064 -15 30 Z " fill="#B4DAE9" transform="translate(186,54)"/>
<path d="M0 0 C4.3924631 -0.07482575 8.78457672 -0.12891683 13.17749023 -0.16479492 C14.66811598 -0.17977042 16.15869851 -0.20015819 17.64916992 -0.22631836 C28.45410389 -0.41104904 38.30152893 -0.2824409 47 7 C51.23192408 12.80533176 52.47317718 17.90234227 52 25 C50.62157459 31.53803614 47.54506292 35.3748163 42 39 C34.24754064 43.30692187 25.62063086 42.26449663 17 42 C17 46.95 17 51.9 17 57 C11.39 57 5.78 57 0 57 C0 47.76 0 38.52 0 29 C3.17882812 28.94392578 3.17882812 28.94392578 6.421875 28.88671875 C8.48057208 28.84047029 10.53908972 28.78924907 12.59765625 28.73754883 C14.02527914 28.70435206 15.45303163 28.67630369 16.88085938 28.65356445 C18.93675815 28.61991987 20.99147512 28.56760438 23.046875 28.51171875 C24.90070801 28.47244263 24.90070801 28.47244263 26.79199219 28.43237305 C30.19207559 27.97411219 31.65371325 27.47292884 34 25 C34.55710527 21.16990128 34.72708298 18.99479182 32.40332031 15.81542969 C29.18516366 13.38448568 27.0553764 13.4585657 23.046875 13.390625 C22.38665344 13.37408875 21.72643188 13.35755249 21.04620361 13.34051514 C18.94737374 13.29211549 16.84926778 13.27068481 14.75 13.25 C13.3228804 13.22183317 11.89579441 13.19190472 10.46875 13.16015625 C6.97883653 13.08305351 3.49119231 13.04247193 0 13 C0 8.71 0 4.42 0 0 Z " fill="#69C6EC" transform="translate(291,57)"/>
<path d="M0 0 C1.48831242 0.00667405 2.97660807 0.01863442 4.46484375 0.03515625 C5.22345703 0.03966797 5.98207031 0.04417969 6.76367188 0.04882812 C8.64326246 0.06064945 10.52281274 0.07858547 12.40234375 0.09765625 C19.01199865 14.20378094 25.46044262 28.36623151 31.65234375 42.66015625 C31.94201019 43.3273468 32.23167664 43.99453735 32.53012085 44.6819458 C33.34932477 46.57078341 34.16558788 48.4608564 34.98046875 50.3515625 C35.4487207 51.43767822 35.91697266 52.52379395 36.39941406 53.64282227 C37.40234375 56.09765625 37.40234375 56.09765625 37.40234375 57.09765625 C31.79234375 57.09765625 26.18234375 57.09765625 20.40234375 57.09765625 C16.3761969 49.51442821 13.30182837 41.57060841 10.15234375 33.59765625 C9.59277087 32.18867378 9.03287764 30.77981849 8.47265625 29.37109375 C7.11218814 25.94807331 5.75606622 22.52335093 4.40234375 19.09765625 C2.08933115 22.56717515 0.66569204 26.19090868 -0.85546875 30.046875 C-1.31734085 31.20580009 -1.31734085 31.20580009 -1.7885437 32.38813782 C-2.76982919 34.85253331 -3.7462973 37.31880534 -4.72265625 39.78515625 C-5.38770411 41.45780826 -6.05306498 43.13033584 -6.71875 44.80273438 C-8.34927839 48.89938613 -9.97327824 52.99854047 -11.59765625 57.09765625 C-17.20765625 57.09765625 -22.81765625 57.09765625 -28.59765625 57.09765625 C-26.16144676 49.15646814 -22.85021666 41.71013991 -19.41015625 34.16015625 C-18.82670125 32.87162166 -18.24369667 31.58288304 -17.66113281 30.29394531 C-16.79080671 28.36849098 -15.92017888 26.44318103 -15.04782104 24.51864624 C-12.27685204 18.40349026 -9.56099336 12.26440565 -6.87036133 6.11352539 C-4.22495497 0.1146839 -4.22495497 0.1146839 0 0 Z " fill="#E4E4E4" transform="translate(59.59765625,56.90234375)"/>
<path d="M0 0 C5.28 0 10.56 0 16 0 C16.06058594 1.84207031 16.12117188 3.68414062 16.18359375 5.58203125 C16.26799639 7.99219566 16.35264453 10.40235149 16.4375 12.8125 C16.47681641 14.02744141 16.51613281 15.24238281 16.55664062 16.49414062 C16.59853516 17.65751953 16.64042969 18.82089844 16.68359375 20.01953125 C16.72025146 21.09307861 16.75690918 22.16662598 16.79467773 23.27270508 C16.89541847 26.09311553 16.89541847 26.09311553 18 29 C21.0832635 30.54163175 23.60878099 30.29747535 27 30 C30.19112723 26.9051826 30.40561571 24.25087887 30.51171875 19.921875 C30.54716797 18.76171875 30.58261719 17.6015625 30.61914062 16.40625 C30.64169922 15.1996875 30.66425781 13.993125 30.6875 12.75 C30.72166016 11.52796875 30.75582031 10.3059375 30.79101562 9.046875 C30.8734653 6.03157254 30.93840971 3.01580064 31 0 C36.28 0 41.56 0 47 0 C47 14.52 47 29.04 47 44 C42.05 44 37.1 44 32 44 C31.67 43.01 31.34 42.02 31 41 C30.21625 41.474375 29.4325 41.94875 28.625 42.4375 C22.42304931 45.11075461 16.62212483 45.98620869 10.1875 43.5625 C5.51698397 41.18177679 2.99826492 37.79048331 1 33 C0.02995943 29.07839405 -0.11607131 25.41961663 -0.09765625 21.38671875 C-0.09443359 20.13955078 -0.09121094 18.89238281 -0.08789062 17.60742188 C-0.07532227 15.66706055 -0.07532227 15.66706055 -0.0625 13.6875 C-0.05798828 12.37458984 -0.05347656 11.06167969 -0.04882812 9.70898438 C-0.03705959 6.47263672 -0.01912463 3.23631255 0 0 Z " fill="#CCDFE6" transform="translate(99,70)"/>
<path d="M0 0 C5.65713786 4.24887163 8.25791341 10.04927899 9.3671875 16.95703125 C9.66956449 23.35734415 7.77631196 28.73190689 3.7109375 33.56640625 C-3.31874452 39.45172143 -9.30599861 42.21145206 -18.4765625 41.69140625 C-26.29430211 40.76020735 -31.83448478 37.839983 -36.9765625 31.81640625 C-40.84408343 26.1532506 -41.885501 20.59116882 -40.9765625 13.81640625 C-38.6065462 6.45163598 -34.75132761 1.54252706 -27.9765625 -2.18359375 C-18.7464313 -5.94401757 -8.52742064 -5.10634082 0 0 Z M-23.9765625 12.81640625 C-25.28225585 17.10997457 -25.4776028 20.57699077 -23.7890625 24.75390625 C-21.82259173 26.99161436 -20.84550353 28.01947819 -17.9765625 28.81640625 C-13.33000374 28.63096519 -13.33000374 28.63096519 -9.31640625 26.5390625 C-6.87188263 23.39610356 -6.85388629 19.69433745 -6.9765625 15.81640625 C-8.53837569 12.14614525 -9.63566846 11.04366895 -12.9765625 8.81640625 C-18.00381754 8.16067733 -20.65559623 8.92613147 -23.9765625 12.81640625 Z " fill="#39BCF2" transform="translate(422.9765625,73.18359375)"/>
<path d="M0 0 C5.49682132 4.21033122 8.28904057 9.43722289 9.4375 16.23046875 C9.83675469 22.92323814 8.01076124 28.40299937 4.0234375 33.78125 C-1.65910904 39.01005708 -7.95427362 41.72970158 -15.640625 41.80859375 C-23.39610646 41.39197698 -28.92349759 39.42723959 -34.7890625 34.34375 C-39.48894163 28.83817731 -41.38572433 24.33732411 -41.25 17.0625 C-40.52699872 11.0306036 -38.25212982 5.52657821 -33.7890625 1.34375 C-23.89315039 -6.08871165 -10.48850678 -6.46722157 0 0 Z M-23.9765625 12.78125 C-25.28225585 17.07481832 -25.4776028 20.54183452 -23.7890625 24.71875 C-21.82259173 26.95645811 -20.84550353 27.98432194 -17.9765625 28.78125 C-13.33000374 28.59580894 -13.33000374 28.59580894 -9.31640625 26.50390625 C-6.87188263 23.36094731 -6.85388629 19.6591812 -6.9765625 15.78125 C-8.53837569 12.110989 -9.63566846 11.0085127 -12.9765625 8.78125 C-18.00381754 8.12552108 -20.65559623 8.89097522 -23.9765625 12.78125 Z " fill="#82CDEC" transform="translate(274.9765625,73.21875)"/>
<path d="M0 0 C5.17830064 4.20805063 7.62114292 9.56143855 9 16 C9.25 19.5 9.25 19.5 9 22 C8 23 8 23 5.04077148 23.11352539 C3.74727783 23.10828857 2.45378418 23.10305176 1.12109375 23.09765625 C0.09110008 23.09553383 0.09110008 23.09553383 -0.95970154 23.09336853 C-3.16067801 23.08775479 -5.36155409 23.07520007 -7.5625 23.0625 C-9.05143083 23.05748676 -10.54036324 23.05292355 -12.02929688 23.04882812 C-15.68623075 23.03778093 -19.34310558 23.02050713 -23 23 C-19.72089514 26.75069361 -19.72089514 26.75069361 -15.28125 28.55859375 C-14.3634375 28.51863281 -13.445625 28.47867188 -12.5 28.4375 C-11.5821875 28.41558594 -10.664375 28.39367187 -9.71875 28.37109375 C-6.8747204 27.98290006 -4.6081487 27.17650186 -2 26 C0.31 28.31 2.62 30.62 5 33 C2.47828078 38.04343845 0.03676244 38.95991599 -5 41 C-13.83831799 43.58682478 -22.36964202 41.44622686 -30.3125 37.25 C-35.05469737 33.27978825 -38.66722856 28.68230694 -39.23828125 22.36328125 C-39.42741151 14.58903208 -38.74813298 9.16564653 -33.45703125 3.28515625 C-23.90476498 -5.6550655 -11.24882777 -6.56667321 0 0 Z M-21.5 9.875 C-23.19222773 11.83880904 -23.19222773 11.83880904 -23 14 C-17.72 14 -12.44 14 -7 14 C-8.33563616 9.05536365 -8.33563616 9.05536365 -11 8 C-16.67666509 7.3861298 -16.67666509 7.3861298 -21.5 9.875 Z " fill="#08AFF1" transform="translate(510,73)"/>
<path d="M0 0 C2.21217066 1.90395812 3.40064835 3.49434909 5 6 C5 6.99 5 7.98 5 9 C3.59248779 9.86916887 2.1735479 10.71985149 0.75 11.5625 C-0.03890625 12.03816406 -0.8278125 12.51382813 -1.640625 13.00390625 C-4 14 -4 14 -6.18359375 13.75 C-8 13 -8 13 -9.8125 11.4375 C-13.00875694 9.33710258 -15.26050447 9.53256306 -19 10 C-21.64237846 11.22435155 -21.64237846 11.22435155 -23 14 C-23.64399077 18.98073875 -23.82909235 22.75636148 -21 27 C-18.01189717 28.0518122 -15.14786075 28.29000392 -12 28 C-9.46790998 26.6081209 -8.02345031 25.12721699 -6 23 C-2.37 24.98 1.26 26.96 5 29 C3.83795491 33.64818034 2.56773326 34.90796451 -1 38 C-8.43078397 42.33462398 -15.60065032 43.02171242 -23.9375 40.9375 C-30.69133526 38.74456264 -35.20018792 34.81220637 -39 28.875 C-41.05050836 22.89884733 -41.30186287 15.47719783 -39.0859375 9.55859375 C-35.18674816 2.92997188 -29.78624028 -1.34465107 -22.41796875 -3.4921875 C-14.33931091 -5.18883616 -7.18101112 -4.15608962 0 0 Z " fill="#00ABF4" transform="translate(563,73)"/>
<path d="M0 0 C5.28 0 10.56 0 16 0 C16 3.63 16 7.26 16 11 C19.3 11 22.6 11 26 11 C26 14.96 26 18.92 26 23 C22.7 23 19.4 23 16 23 C16.14019692 25.81288705 16.28687955 28.62516885 16.4375 31.4375 C16.47681641 32.23994141 16.51613281 33.04238281 16.55664062 33.86914062 C16.4054296 37.75239561 16.4054296 37.75239561 18 41 C20.67058851 41.14115161 23.32432238 41.04247107 26 41 C26.99 44.63 27.98 48.26 29 52 C24.22382793 55.18411471 19.67898476 55.39165412 14 55 C8.82785808 53.30567765 5.40075831 51.27523902 2 47 C0.02577651 41.55551514 -0.25191872 36.75919814 -0.125 31.0625 C-0.11597656 30.28326172 -0.10695313 29.50402344 -0.09765625 28.70117188 C-0.07433691 26.80064553 -0.03847586 24.90027992 0 23 C-1.98 23 -3.96 23 -6 23 C-6 19.04 -6 15.08 -6 11 C-4.02 11 -2.04 11 0 11 C0 7.37 0 3.74 0 0 Z " fill="#20B6F3" transform="translate(440,60)"/>
<path d="M0 0 C4.95 0 9.9 0 15 0 C15 3.63 15 7.26 15 11 C18.3 11 21.6 11 25 11 C25 14.96 25 18.92 25 23 C21.7 23 18.4 23 15 23 C15.1409349 25.43787385 15.28754542 27.87517853 15.4375 30.3125 C15.47681641 31.00279297 15.51613281 31.69308594 15.55664062 32.40429688 C15.74927415 35.47161535 16.02322717 38.06968152 17 41 C19.64 41 22.28 41 25 41 C25.50833591 42.24663331 26.00631145 43.49749387 26.5 44.75 C26.7784375 45.44609375 27.056875 46.1421875 27.34375 46.859375 C28 49 28 49 28 53 C20.0339316 55.60116519 14.24687755 55.36306685 6.33203125 52.55859375 C2.99233304 50.32653414 1.27788613 47.73487236 0 44 C-0.44988099 40.33355817 -0.381032 36.74903494 -0.25 33.0625 C-0.23195313 32.09248047 -0.21390625 31.12246094 -0.1953125 30.12304688 C-0.14850667 27.74765106 -0.08296385 25.37436156 0 23 C-2.31 23 -4.62 23 -7 23 C-7 19.04 -7 15.08 -7 11 C-4.69 11 -2.38 11 0 11 C0 7.37 0 3.74 0 0 Z " fill="#00A7F6" transform="translate(577,60)"/>
<path d="M0 0 C0 4.62 0 9.24 0 14 C-2.24609375 14.42317708 -4.4921875 14.84635417 -6.73828125 15.26953125 C-9.34268612 16.11067756 -10.38994611 16.79546467 -12 19 C-12.823008 22.36959297 -13.16783201 25.62237402 -13.31640625 29.08203125 C-13.35830078 30.01337891 -13.40019531 30.94472656 -13.44335938 31.90429688 C-13.50233398 33.34385742 -13.50233398 33.34385742 -13.5625 34.8125 C-13.60568359 35.79154297 -13.64886719 36.77058594 -13.69335938 37.77929688 C-13.79902166 40.18604898 -13.89997465 42.59300703 -14 45 C-18.95 45 -23.9 45 -29 45 C-29 30.48 -29 15.96 -29 1 C-24.05 1 -19.1 1 -14 1 C-13.67 1.99 -13.34 2.98 -13 4 C-12.2575 3.525625 -11.515 3.05125 -10.75 2.5625 C-6.83145504 0.336054 -4.52995557 0 0 0 Z " fill="#53C7F6" transform="translate(379,69)"/>
<path d="M0 0 C4.95 0 9.9 0 15 0 C15 14.52 15 29.04 15 44 C10.05 44 5.1 44 0 44 C0 29.48 0 14.96 0 0 Z " fill="#A1DAF3" transform="translate(212,70)"/>
<path d="M0 0 C3.61986532 0.8116877 5.12897034 2.4703572 7.16015625 5.484375 C7.78515625 8.484375 7.78515625 8.484375 7.16015625 11.484375 C5.12897034 14.4983928 3.61986532 16.1570623 0 16.96875 C-4.27454545 17.22565089 -6.32095478 16.84442041 -9.90234375 14.359375 C-11.83984375 11.484375 -11.83984375 11.484375 -12.46484375 8.484375 C-11.02428942 1.56971423 -6.5310975 -0.39252005 0 0 Z " fill="#99D0E7" transform="translate(221.83984375,48.515625)"/>
</svg>
