<?xml version="1.0" encoding="UTF-8"?>
<!DOCTYPE svg PUBLIC "-//W3C//DTD SVG 1.1//EN" "http://www.w3.org/Graphics/SVG/1.1/DTD/svg11.dtd">
<svg xmlns="http://www.w3.org/2000/svg" version="1.1" width="1200px" height="675px" style="shape-rendering:geometricPrecision; text-rendering:geometricPrecision; image-rendering:optimizeQuality; fill-rule:evenodd; clip-rule:evenodd" xmlns:xlink="http://www.w3.org/1999/xlink">
<g><path style="opacity:0.376" fill="#7e7e7e" d="M 515.5,246.5 C 473.153,245.839 431.153,246.505 389.5,248.5C 388.596,247.791 388.263,246.791 388.5,245.5C 431.003,245.168 473.337,245.501 515.5,246.5 Z"/></g>
<g><path style="opacity:0.996" fill="#fcfcfc" d="M 732.5,375.5 C 749.992,376.497 767.659,376.83 785.5,376.5C 785.5,393.833 785.5,411.167 785.5,428.5C 760.831,428.667 736.164,428.5 711.5,428C 697.302,405.299 683.302,382.465 669.5,359.5C 690.681,341.813 699.181,319.146 695,291.5C 692.411,274.262 684.078,260.595 670,250.5C 669.506,248.866 669.34,247.199 669.5,245.5C 690.5,245.5 711.5,245.5 732.5,245.5C 732.5,288.833 732.5,332.167 732.5,375.5 Z"/></g>
<g><path style="opacity:0.631" fill="#a0a0a0" d="M 981.5,246.5 C 999.659,245.503 1017.99,245.17 1036.5,245.5C 1036.5,306.833 1036.5,368.167 1036.5,429.5C 1015.99,429.83 995.66,429.497 975.5,428.5C 995.5,428.5 1015.5,428.5 1035.5,428.5C 1035.5,367.833 1035.5,307.167 1035.5,246.5C 1017.5,246.5 999.5,246.5 981.5,246.5 Z"/></g>
<g><path style="opacity:0.998" fill="#fbfbfb" d="M 330.5,340.5 C 330.785,338.712 330.452,337.045 329.5,335.5C 328.893,335.624 328.56,335.957 328.5,336.5C 321.15,367.231 313.484,397.898 305.5,428.5C 289.167,429.833 272.833,429.833 256.5,428.5C 244.429,396.618 232.762,364.618 221.5,332.5C 221.539,331.244 221.039,330.244 220,329.5C 219.188,333.689 219.355,337.689 220.5,341.5C 221.015,370.501 221.182,399.501 221,428.5C 201.91,429.493 182.743,429.826 163.5,429.5C 163.5,368.167 163.5,306.833 163.5,245.5C 189.835,245.333 216.169,245.5 242.5,246C 254.858,278.072 267.025,310.239 279,342.5C 285.334,310.497 291.667,278.497 298,246.5C 322.759,245.506 347.592,245.172 372.5,245.5C 381.419,306.433 390.752,367.266 400.5,428C 391.323,429.156 381.989,429.656 372.5,429.5C 363.5,429.333 354.5,429.167 345.5,429C 345,428.5 344.5,428 344,427.5C 339.281,398.522 334.781,369.522 330.5,340.5 Z"/></g>
<g><path style="opacity:0.999" fill="#fdfdfd" d="M 515.5,246.5 C 515.5,263.5 515.5,280.5 515.5,297.5C 490.5,297.5 465.5,297.5 440.5,297.5C 440.5,302.833 440.5,308.167 440.5,313.5C 465.167,313.5 489.833,313.5 514.5,313.5C 515.833,329.5 515.833,345.5 514.5,361.5C 489.833,361.5 465.167,361.5 440.5,361.5C 440.5,366.833 440.5,372.167 440.5,377.5C 464.994,378.498 489.661,378.831 514.5,378.5C 514.5,395.167 514.5,411.833 514.5,428.5C 481.833,428.5 449.167,428.5 416.5,428.5C 407.127,368.557 398.127,308.557 389.5,248.5C 431.153,246.505 473.153,245.839 515.5,246.5 Z"/></g>
<g><path style="opacity:0.998" fill="#fbfbfb" d="M 591.5,365.5 C 591.44,364.957 591.107,364.624 590.5,364.5C 589.5,385.823 589.167,407.156 589.5,428.5C 570.341,429.497 551.007,429.83 531.5,429.5C 531.5,368.167 531.5,306.833 531.5,245.5C 559.835,245.333 588.169,245.5 616.5,246C 664.873,249.353 685.373,274.853 678,322.5C 673.194,337.641 663.694,348.808 649.5,356C 664.418,379.833 679.084,403.833 693.5,428C 670.648,429.655 647.648,429.988 624.5,429C 613.347,407.858 602.347,386.692 591.5,365.5 Z M 589.5,294.5 C 597.214,294.295 604.881,294.795 612.5,296C 618.471,298.275 621.471,302.608 621.5,309C 621.086,314.494 618.419,318.494 613.5,321C 605.606,322.82 597.606,323.653 589.5,323.5C 589.5,313.833 589.5,304.167 589.5,294.5 Z"/></g>
<g><path style="opacity:0.314" fill="#666666" d="M 856.5,428.5 C 856.5,367.833 856.5,307.167 856.5,246.5C 838.167,246.5 819.833,246.5 801.5,246.5C 801.5,307.167 801.5,367.833 801.5,428.5C 800.501,367.669 800.168,306.669 800.5,245.5C 819.5,245.5 838.5,245.5 857.5,245.5C 857.832,306.669 857.499,367.669 856.5,428.5 Z"/></g>
<g><path style="opacity:1" fill="#fefefe" d="M 856.5,428.5 C 838.167,428.5 819.833,428.5 801.5,428.5C 801.5,367.833 801.5,307.167 801.5,246.5C 819.833,246.5 838.167,246.5 856.5,246.5C 856.5,307.167 856.5,367.833 856.5,428.5 Z"/></g>
<g><path style="opacity:0.999" fill="#fcfcfc" d="M 980.5,335.5 C 980.783,336.289 981.283,336.956 982,337.5C 982.83,315.329 982.663,293.329 981.5,271.5C 981.447,262.859 981.447,254.526 981.5,246.5C 999.5,246.5 1017.5,246.5 1035.5,246.5C 1035.5,307.167 1035.5,367.833 1035.5,428.5C 1015.5,428.5 995.5,428.5 975.5,428.5C 973.567,427.358 972.067,425.692 971,423.5C 955.982,398.13 941.482,372.464 927.5,346.5C 927.631,345.624 927.298,344.957 926.5,344.5C 925.5,372.492 925.167,400.492 925.5,428.5C 907.167,428.5 888.833,428.5 870.5,428.5C 870.169,367.595 870.502,306.762 871.5,246C 891.508,245.167 911.508,245.334 931.5,246.5C 948.112,276.06 964.445,305.727 980.5,335.5 Z"/></g>
<g><path style="opacity:0.529" fill="#b0b0b0" d="M 981.5,271.5 C 982.663,293.329 982.83,315.329 982,337.5C 981.283,336.956 980.783,336.289 980.5,335.5C 981.497,314.34 981.831,293.007 981.5,271.5 Z"/></g>
<g><path style="opacity:0.125" fill="#535353" d="M 515.5,297.5 C 491.006,298.498 466.339,298.831 441.5,298.5C 441.5,303.167 441.5,307.833 441.5,312.5C 466.006,312.169 490.339,312.502 514.5,313.5C 489.833,313.5 465.167,313.5 440.5,313.5C 440.5,308.167 440.5,302.833 440.5,297.5C 465.5,297.5 490.5,297.5 515.5,297.5 Z"/></g>
<g><path style="opacity:0.282" fill="#6c6c6c" d="M 221.5,332.5 C 220.523,335.287 220.19,338.287 220.5,341.5C 219.355,337.689 219.188,333.689 220,329.5C 221.039,330.244 221.539,331.244 221.5,332.5 Z"/></g>
<g><path style="opacity:0.718" fill="#7d7d7d" d="M 328.5,336.5 C 328.56,335.957 328.893,335.624 329.5,335.5C 330.452,337.045 330.785,338.712 330.5,340.5C 329.833,339.167 329.167,337.833 328.5,336.5 Z"/></g>
<g><path style="opacity:0.125" fill="#404040" d="M 514.5,361.5 C 490.339,362.498 466.006,362.831 441.5,362.5C 441.5,367.5 441.5,372.5 441.5,377.5C 441.167,377.5 440.833,377.5 440.5,377.5C 440.5,372.167 440.5,366.833 440.5,361.5C 465.167,361.5 489.833,361.5 514.5,361.5 Z"/></g>
<g><path style="opacity:0.376" fill="#7f7f7f" d="M 732.5,375.5 C 750.5,375.5 768.5,375.5 786.5,375.5C 786.83,393.341 786.497,411.008 785.5,428.5C 785.5,411.167 785.5,393.833 785.5,376.5C 767.659,376.83 749.992,376.497 732.5,375.5 Z"/></g>
<g><path style="opacity:0.494" fill="#9c9c9c" d="M 927.5,346.5 C 926.833,373.833 926.167,401.167 925.5,428.5C 925.167,400.492 925.5,372.492 926.5,344.5C 927.298,344.957 927.631,345.624 927.5,346.5 Z"/></g>
<g><path style="opacity:0.376" fill="#7f7f7f" d="M 440.5,377.5 C 440.833,377.5 441.167,377.5 441.5,377.5C 466.167,377.5 490.833,377.5 515.5,377.5C 515.83,394.675 515.497,411.675 514.5,428.5C 514.5,411.833 514.5,395.167 514.5,378.5C 489.661,378.831 464.994,378.498 440.5,377.5 Z"/></g>
<g><path style="opacity:0.322" fill="#707070" d="M 591.5,365.5 C 590.833,386.5 590.167,407.5 589.5,428.5C 589.167,407.156 589.5,385.823 590.5,364.5C 591.107,364.624 591.44,364.957 591.5,365.5 Z"/></g>
</svg>
