<svg version="1.2" xmlns="http://www.w3.org/2000/svg" viewBox="0 0 1567 366" width="1567" height="366">
	<title>TikTok-Logomark&amp;Wordmark-White-Logo</title>
	<style>
		.s0 { fill: #25f4ee } 
		.s1 { fill: #fe2c55 } 
		.s2 { fill: #ffffff } 
	</style>
	<g id="Layer">
		<path id="Layer" class="s0" d="m125 144.1v-14.4c-4.8-1.2-9.6-1.2-14.4-1.2-61.3 0-110.6 49.2-110.6 110.5 0 37.2 19.2 70.9 46.9 90.1l-1.2-1.2c-18.1-19.2-27.7-45.7-27.7-73.3 0-61.2 48.1-109.3 107-110.5z"/>
		<path id="Layer" class="s0" d="m127.4 305.1c27.7 0 49.3-21.7 50.5-49.3v-240.2h43.3c-1.2-4.8-1.2-9.6-1.2-15.6h-60.1v240.2c-1.2 26.4-22.9 48-50.5 48-8.4 0-16.8-2.4-22.8-6 9.6 13.2 24 22.9 40.8 22.9zm176.7-207.8v-14.4c-16.8 0-32.4-4.8-45.7-13.2 12.1 13.2 27.7 24 45.7 27.6z"/>
		<path id="Layer" class="s1" d="m258.4 69.7c-13.2-14.5-20.4-33.7-20.4-55.3h-16.8c4.8 24 19.2 43.2 37.2 55.3zm-147.8 117.7c-27.7 0-50.5 22.8-50.5 50.4 0 19.2 12 36 27.7 44.4-6.1-8.4-9.7-18-9.7-28.8 0-27.6 22.9-50.4 50.5-50.4 4.8 0 9.6 1.2 14.4 2.4v-61.3c-4.8-1.2-9.6-1.2-14.4-1.2h-2.4v45.7c-6 0-10.8-1.2-15.6-1.2z"/>
		<path id="Layer" class="s1" d="m304.1 97.3v45.6c-31.2 0-60.1-9.6-82.9-26.4v122.5c0 61.3-49.3 110.5-110.6 110.5-24.1 0-45.7-7.2-63.7-19.2 20.4 21.6 49.3 34.8 80.5 34.8 61.3 0 110.6-49.2 110.6-110.5v-122.5c24.1 16.8 52.9 26.4 83 26.4v-60c-4.9 0-10.9 0-16.9-1.2z"/>
		<path id="Layer" fill-rule="evenodd" class="s2" d="m110.6 350.7c-24.1 0-45.7-8.4-63.7-20.4-19.3-20.4-30.1-46.9-30.1-75.7 0-60 48.1-109.3 108.2-110.5v46.9c-4.8-1.2-9.6-2.4-14.4-2.4-27.7 0-50.5 22.8-50.5 50.4 0 19.2 10.8 36 26.4 43.2 9.7 12 24.1 20.5 40.9 20.5 27.7 0 49.3-21.7 50.5-48.1v-240.2h44.5c3.6 22.8 16.8 43.2 36 55.3 12.1 13.2 27.7 22.8 45.7 26.4v46.8c-30 0-58.9-9.6-82.9-26.4v122.5c0 60-49.3 110.5-110.6 111.7zm285.4-272.9h195.9l-17.6 56.5h-50.2v207.1h-62.8v-208.4h-64.1zm517.5 0h201l-17.6 56.5h-55.3v207.1h-64v-208.3h-64.1zm-309 84h62.8v178.2h-62.8zm87.9-85.3h62.8v123l62.8-61.5h75.4l-79.1 76.5 87.9 125.5h-69.1l-59-87.8-18.9 17.6v69h-62.8zm664.5 0h62.8v123l62.8-61.5h75.4l-79.2 76.5 87.9 125.5h-69l-59.1-87.8-18.8 17.5v69.1h-62.8zm-721 64c-17.3 0-31.4-14.1-31.4-31.4 0-17.4 14.1-31.4 31.4-31.4 17.4 0 31.4 14 31.4 31.4 0 17.3-14 31.4-31.4 31.4z"/>
		<path id="Layer" class="s0" d="m1105.6 233.4c0-56.4 44-102.9 99.3-106.6h-8.8c-59.1 0-108.1 47.7-108.1 107.9 0 59 47.8 107.9 108.1 107.9h8.7c-55.2-6.3-99.2-52.7-99.2-109.2z"/>
		<path id="Layer" class="s1" d="m1228.7 125.5h-10c55.2 3.8 99.2 50.2 99.2 106.7 0 56.5-44 102.9-99.2 106.7h10c59 0 108-47.7 108-108 0-56.4-47.7-105.4-108-105.4z"/>
		<path id="Layer" fill-rule="evenodd" class="s2" d="m1212.4 341.4c-59.8 0-108-48.3-108-108 0-59.6 48.2-107.9 108-107.9 59.7 0 108 48.3 108 107.9 0 59.7-48.3 108-108 108zm52.7-108c0-29.1-23.5-52.7-52.7-52.7-29.2 0-52.8 23.6-52.8 52.7 0 29.2 23.6 52.7 52.8 52.7 29.2 0 52.7-23.5 52.7-52.7z"/>
	</g>
</svg>