<svg version="1.2" xmlns="http://www.w3.org/2000/svg" viewBox="0 0 1511 338" width="1511" height="338">
	<title>YouTube_Logo_2017-svg</title>
	<style>
		.s0 { fill: #ff0000 } 
		.s1 { fill: #ffffff } 
	</style>
	<g id="Layer">
		<g id="Layer">
			<path id="Layer" class="s0" d="m472.3 52.9c-5.5-20.7-21.8-37-42.5-42.5-37.6-10.1-188.2-10.1-188.2-10.1 0 0-150.6 0-188.1 10.1-20.7 5.5-37 21.8-42.6 42.5-10 37.6-10 115.9-10 115.9 0 0 0 78.4 10 115.9 5.6 20.7 21.9 37 42.6 42.5 37.5 10.1 188.1 10.1 188.1 10.1 0 0 150.6 0 188.2-10.1 20.7-5.5 37-21.8 42.5-42.5 10.1-37.5 10.1-115.9 10.1-115.9 0 0 0-78.3-10.1-115.9z"/>
			<path id="Layer" class="s1" d="m193.4 241l125.1-72.2-125.1-72.2z"/>
		</g>
		<g id="Layer">
			<path id="Layer" fill-rule="evenodd" class="s1" d="m584.1 219.4l-54.1-195.2h47.2l18.9 88.5c4.9 21.8 8.4 40.4 10.7 55.8h1.4q2.4-16.6 10.7-55.5l19.6-88.8h47.2l-54.8 195.2v93.7h-46.8v-93.7zm115.7 87.5q-14.3-9.7-20.3-30c-4-13.5-6.1-31.5-6.1-54v-30.7c0-22.7 2.3-40.9 6.9-54.7 4.6-13.7 11.8-23.8 21.6-30.1q14.6-9.5 38.4-9.5c15.6 0 28.1 3.2 37.5 9.7 9.4 6.4 16.3 16.4 20.7 30.1q6.5 20.5 6.5 54.5v30.7q0 33.7-6.4 54.2-6.3 20.5-20.6 29.9-14.3 9.5-38.8 9.5c-16.8 0-29.9-3.2-39.4-9.6zm53.4-33.1c2.6-6.9 3.9-18.1 3.9-33.7v-65.7c0-15.2-1.3-26.3-3.9-33.2q-4-10.6-14-10.5c-6.4 0-11 3.4-13.6 10.5q-4 10.5-4 33.2v65.7q0 23.4 3.9 33.7c2.5 6.9 7 10.4 13.7 10.4q10 0 14-10.4zm205.3 39.3h-37.2l-4.1-25.8h-1.1q-15.1 29.2-45.4 29.2-21 0-31-13.7-10-13.8-10-43.1v-157.6h47.5v154.9q0 14.1 3.1 20.1 3.1 6 10.3 6 6.2 0 11.9-3.8c3.8-2.5 6.6-5.7 8.5-9.6v-167.7h47.5zm129.1-250.6h-47.2v250.6h-46.5v-250.6h-47.2v-38.2h140.9zm114.6 250.6h-37.2l-4.1-25.8h-1q-15.2 29.2-45.5 29.2-21 0-31-13.7-10-13.8-10-43.1v-157.6h47.6v154.9q0 14.1 3 20.1 3.1 6 10.4 6 6.2 0 11.9-3.8c3.8-2.5 6.6-5.7 8.4-9.6v-167.7h47.5zm161.6-121.9v33.4c0 31.4-3.8 54.5-11.3 69.4-7.6 14.8-19.5 22.2-35.5 22.2q-13.5 0-24.5-6.2c-7.3-4.2-12.8-9.8-16.5-16.9h-1l-4.9 20h-39.2v-299.5h45.8v111.2h0.3c4.1-8.1 10-14.5 17.6-19.5q11.3-7.4 24.4-7.4 16.9 0 26.6 9 9.6 8.9 13.9 28.9c2.9 13.3 4.3 31.8 4.3 55.4zm-47.9 30.7v-27.2q0-24.8-1.5-38.2c-1.1-9-2.9-15.3-5.5-19.1q-4-5.7-11.2-5.7c-4.6 0-8.9 1.8-12.8 5.5-3.9 3.7-6.7 8.4-8.2 14.1v119.8c2 3.7 4.7 6.4 8.1 8.2q4.9 2.8 10.8 2.8c5 0 9.1-1.8 12.1-5.5 3-3.6 5.1-9.9 6.3-18.6q1.9-13 1.9-36.1zm115.4 12.2q0 20.3 1.2 30.4c0.8 6.8 2.4 11.7 5 14.8q3.8 4.7 11.7 4.7c7.1 0 12-2.8 14.6-8.3q4-8.3 4.3-27.5l41 2.4q0.4 2.7 0.4 7.5 0 29.3-16 43.8-16 14.4-45.3 14.4-35.2 0-49.2-22c-9.5-14.7-14.2-37.4-14.2-68.2v-36.8q0-47.5 14.7-69.4 14.6-21.9 50.1-21.9 24.4 0 37.5 9c8.7 6 14.9 15.2 18.5 27.9q5.3 18.9 5.3 52.3v36.2h-79.6zm6-99.5c-2.4 3-4 7.8-4.8 14.6q-1.2 10.2-1.2 30.8v15.2h34.8v-15.2q0-20.3-1.4-30.8c-0.9-7-2.6-11.9-5-14.8-2.4-2.9-6.2-4.3-11.2-4.3q-7.6 0-11.2 4.5z"/>
		</g>
	</g>
</svg>